<?xml version="1.0" encoding="UTF-8" standalone="no"?><svg xmlns="http://www.w3.org/2000/svg" xmlns:xlink="http://www.w3.org/1999/xlink" contentStyleType="text/css" height="414px" preserveAspectRatio="none" style="width:533px;height:414px;background:#FFFFFF;" version="1.1" viewBox="0 0 533 414" width="533px" zoomAndPan="magnify"><defs/><g><!--MD5=[7727584e4826944d4ad925785137a196]
class Пользователь--><g id="elem_Пользователь"><rect codeLine="2" fill="#F1F1F1" height="96.8906" id="Пользователь" rx="2.5" ry="2.5" style="stroke:#181818;stroke-width:0.5;" width="136" x="21" y="47.5"/><ellipse cx="36" cy="63.5" fill="#ADD1B2" rx="11" ry="11" style="stroke:#181818;stroke-width:1.0;"/><path d="M40.1094,69.5 L32.3906,69.5 L32.3906,57.1094 L40.1094,57.1094 L40.1094,59.2656 L34.8438,59.2656 L34.8438,61.9375 L39.6094,61.9375 L39.6094,64.0938 L34.8438,64.0938 L34.8438,67.3438 L40.1094,67.3438 L40.1094,69.5 Z " fill="#000000"/><text fill="#000000" font-family="sans-serif" font-size="14" lengthAdjust="spacing" textLength="104" x="50" y="68.3467">Пользователь</text><line style="stroke:#181818;stroke-width:0.5;" x1="22" x2="156" y1="79.5" y2="79.5"/><text fill="#000000" font-family="sans-serif" font-size="14" lengthAdjust="spacing" textLength="36" x="27" y="96.4951">Email</text><text fill="#000000" font-family="sans-serif" font-size="14" lengthAdjust="spacing" textLength="53" x="27" y="112.792">Пароль</text><text fill="#000000" font-family="sans-serif" font-size="14" lengthAdjust="spacing" textLength="35" x="27" y="129.0889">Роль</text><line style="stroke:#181818;stroke-width:0.5;" x1="22" x2="156" y1="136.3906" y2="136.3906"/></g><!--MD5=[9a759611c720508d86c734ec4dca4976]
class Аккаунт--><g id="elem_Аккаунт"><rect codeLine="8" fill="#F1F1F1" height="129.4844" id="Аккаунт" rx="2.5" ry="2.5" style="stroke:#181818;stroke-width:0.5;" width="130" x="192" y="31.5"/><ellipse cx="225" cy="47.5" fill="#ADD1B2" rx="11" ry="11" style="stroke:#181818;stroke-width:1.0;"/><path d="M229.1094,53.5 L221.3906,53.5 L221.3906,41.1094 L229.1094,41.1094 L229.1094,43.2656 L223.8438,43.2656 L223.8438,45.9375 L228.6094,45.9375 L228.6094,48.0938 L223.8438,48.0938 L223.8438,51.3438 L229.1094,51.3438 L229.1094,53.5 Z " fill="#000000"/><text fill="#000000" font-family="sans-serif" font-size="14" lengthAdjust="spacing" textLength="58" x="243" y="52.3467">Аккаунт</text><line style="stroke:#181818;stroke-width:0.5;" x1="193" x2="321" y1="63.5" y2="63.5"/><text fill="#000000" font-family="sans-serif" font-size="14" lengthAdjust="spacing" textLength="14" x="198" y="80.4951">ID</text><text fill="#000000" font-family="sans-serif" font-size="14" lengthAdjust="spacing" textLength="34" x="198" y="96.792">ФИО</text><text fill="#000000" font-family="sans-serif" font-size="14" lengthAdjust="spacing" textLength="118" x="198" y="113.0889">День рождения</text><text fill="#000000" font-family="sans-serif" font-size="14" lengthAdjust="spacing" textLength="28" x="198" y="129.3857">Пол</text><text fill="#000000" font-family="sans-serif" font-size="14" lengthAdjust="spacing" textLength="36" x="198" y="145.6826">Email</text><line style="stroke:#181818;stroke-width:0.5;" x1="193" x2="321" y1="152.9844" y2="152.9844"/></g><!--MD5=[8272429289b81f9007fc84d53d9d6b11]
class Соревнование--><g id="elem_Соревнование"><rect codeLine="16" fill="#F1F1F1" height="178.375" id="Соревнование" rx="2.5" ry="2.5" style="stroke:#181818;stroke-width:0.5;" width="169" x="357.5" y="7"/><ellipse cx="386.45" cy="23" fill="#ADD1B2" rx="11" ry="11" style="stroke:#181818;stroke-width:1.0;"/><path d="M390.5594,29 L382.8406,29 L382.8406,16.6094 L390.5594,16.6094 L390.5594,18.7656 L385.2938,18.7656 L385.2938,21.4375 L390.0594,21.4375 L390.0594,23.5938 L385.2938,23.5938 L385.2938,26.8438 L390.5594,26.8438 L390.5594,29 Z " fill="#000000"/><text fill="#000000" font-family="sans-serif" font-size="14" lengthAdjust="spacing" textLength="106" x="403.55" y="27.8467">Соревнование</text><line style="stroke:#181818;stroke-width:0.5;" x1="358.5" x2="525.5" y1="39" y2="39"/><text fill="#000000" font-family="sans-serif" font-size="14" lengthAdjust="spacing" textLength="14" x="363.5" y="55.9951">ID</text><text fill="#000000" font-family="sans-serif" font-size="14" lengthAdjust="spacing" textLength="37" x="363.5" y="72.292">Дата</text><text fill="#000000" font-family="sans-serif" font-size="14" lengthAdjust="spacing" textLength="157" x="363.5" y="88.5889">Возрастая категория</text><text fill="#000000" font-family="sans-serif" font-size="14" lengthAdjust="spacing" textLength="86" x="363.5" y="104.8857">Тип оружия</text><text fill="#000000" font-family="sans-serif" font-size="14" lengthAdjust="spacing" textLength="29" x="363.5" y="121.1826">Вид</text><text fill="#000000" font-family="sans-serif" font-size="14" lengthAdjust="spacing" textLength="28" x="363.5" y="137.4795">Пол</text><text fill="#000000" font-family="sans-serif" font-size="14" lengthAdjust="spacing" textLength="85" x="363.5" y="153.7764">Командные</text><text fill="#000000" font-family="sans-serif" font-size="14" lengthAdjust="spacing" textLength="145" x="363.5" y="170.0732">Число спортсменов</text><line style="stroke:#181818;stroke-width:0.5;" x1="358.5" x2="525.5" y1="177.375" y2="177.375"/></g><!--MD5=[5b66e89722f21078b22f6b2bb8d5c9a0]
class Бой--><g id="elem_Бой"><rect codeLine="27" fill="#F1F1F1" height="145.7813" id="Бой" rx="2.5" ry="2.5" style="stroke:#181818;stroke-width:0.5;" width="164" x="7" y="253"/><ellipse cx="70.75" cy="269" fill="#ADD1B2" rx="11" ry="11" style="stroke:#181818;stroke-width:1.0;"/><path d="M74.8594,275 L67.1406,275 L67.1406,262.6094 L74.8594,262.6094 L74.8594,264.7656 L69.5938,264.7656 L69.5938,267.4375 L74.3594,267.4375 L74.3594,269.5938 L69.5938,269.5938 L69.5938,272.8438 L74.8594,272.8438 L74.8594,275 Z " fill="#000000"/><text fill="#000000" font-family="sans-serif" font-size="14" lengthAdjust="spacing" textLength="28" x="91.25" y="273.8467">Бой</text><line style="stroke:#181818;stroke-width:0.5;" x1="8" x2="170" y1="285" y2="285"/><text fill="#000000" font-family="sans-serif" font-size="14" lengthAdjust="spacing" textLength="14" x="13" y="301.9951">ID</text><text fill="#000000" font-family="sans-serif" font-size="14" lengthAdjust="spacing" textLength="108" x="13" y="318.292">ID победителя</text><text fill="#000000" font-family="sans-serif" font-size="14" lengthAdjust="spacing" textLength="124" x="13" y="334.5889">ID проигравшего</text><text fill="#000000" font-family="sans-serif" font-size="14" lengthAdjust="spacing" textLength="121" x="13" y="350.8857">ID соревнования</text><text fill="#000000" font-family="sans-serif" font-size="14" lengthAdjust="spacing" textLength="130" x="13" y="367.1826">Счет победителя</text><text fill="#000000" font-family="sans-serif" font-size="14" lengthAdjust="spacing" textLength="152" x="13" y="383.4795">Счет проишравшего</text><line style="stroke:#181818;stroke-width:0.5;" x1="8" x2="170" y1="390.7813" y2="390.7813"/></g><!--MD5=[2a3f318aeecd2ce97203958b3da0920a]
class Спортсмен--><g id="elem_Спортсмен"><rect codeLine="36" fill="#F1F1F1" height="162.0781" id="Спортсмен" rx="2.5" ry="2.5" style="stroke:#181818;stroke-width:0.5;" width="148" x="206" y="245"/><ellipse cx="236.3" cy="261" fill="#ADD1B2" rx="11" ry="11" style="stroke:#181818;stroke-width:1.0;"/><path d="M240.4094,267 L232.6906,267 L232.6906,254.6094 L240.4094,254.6094 L240.4094,256.7656 L235.1438,256.7656 L235.1438,259.4375 L239.9094,259.4375 L239.9094,261.5938 L235.1438,261.5938 L235.1438,264.8438 L240.4094,264.8438 L240.4094,267 Z " fill="#000000"/><text fill="#000000" font-family="sans-serif" font-size="14" lengthAdjust="spacing" textLength="82" x="253.7" y="265.8467">Спортсмен</text><line style="stroke:#181818;stroke-width:0.5;" x1="207" x2="353" y1="277" y2="277"/><text fill="#000000" font-family="sans-serif" font-size="14" lengthAdjust="spacing" textLength="14" x="212" y="293.9951">ID</text><text fill="#000000" font-family="sans-serif" font-size="14" lengthAdjust="spacing" textLength="83" x="212" y="310.292">ID аккаунта</text><text fill="#000000" font-family="sans-serif" font-size="14" lengthAdjust="spacing" textLength="86" x="212" y="326.5889">Тип оружия</text><text fill="#000000" font-family="sans-serif" font-size="14" lengthAdjust="spacing" textLength="136" x="212" y="342.8857">Вооруженная рука</text><text fill="#000000" font-family="sans-serif" font-size="14" lengthAdjust="spacing" textLength="73" x="212" y="359.1826">Лицензия</text><text fill="#000000" font-family="sans-serif" font-size="14" lengthAdjust="spacing" textLength="76" x="212" y="375.4795">Страховка</text><text fill="#000000" font-family="sans-serif" font-size="14" lengthAdjust="spacing" textLength="52" x="212" y="391.7764">Разряд</text><line style="stroke:#181818;stroke-width:0.5;" x1="207" x2="353" y1="399.0781" y2="399.0781"/></g><!--MD5=[80be95fb634c7f3121e47995da055ff9]
@startuml systemEntities

entity Пользователь {
    Email
    Пароль
    Роль
}

entity Аккаунт {
    ID
    ФИО
    День рождения
    Пол
    Email
}

entity Соревнование {
    ID
    Дата
    Возрастая категория
    Тип оружия
    Вид
    Пол
    Командные
    Число спортсменов
}

entity Бой {
    ID
    ID победителя
    ID проигравшего
    ID соревнования
    Счет победителя
    Счет проишравшего
}

entity Спортсмен {
    ID
    ID аккаунта
    Тип оружия
    Вооруженная рука
    Лицензия
    Страховка
    Разряд
}

@enduml

PlantUML version 1.2022.7(Mon Aug 22 20:01:30 MSK 2022)
(GPL source distribution)
Java Runtime: OpenJDK Runtime Environment
JVM: OpenJDK 64-Bit Server VM
Default Encoding: UTF-8
Language: ru
Country: RU
--></g></svg>